<?xml version="1.0" encoding="utf-8"?>
<svg viewBox="0 0 500 500" xmlns="http://www.w3.org/2000/svg">
  <path style="fill: rgb(216, 216, 216);" d="M 0 100 C 0 0 100 0 100 0 L 400 0 C 400 0 500 0 500 100 C 500 200 500 400 500 400 C 500 400 500 500 400.4 499.4 C 300.2 498.8 100 500 99.6 500 C 0 500 1.2 400.4 1.2 400.4 C 1.2 400.4 0 200.1 0 100 Z"/>
  <path style="paint-order: fill markers; fill: rgb(255, 255, 255);" d="M 35.5 118.1 C 35.5 30.4 121.6 30.4 121.6 30.4 L 379.7 30.4 C 379.7 30.4 465.8 30.4 465.8 118.1 C 465.8 205.8 465.8 381.3 465.8 381.3 C 465.8 381.3 465.8 469.1 380.1 468.5 C 293.8 468.1 121.6 469.1 121.3 469.1 C 35.5 469.1 36.6 381.6 36.6 381.6 C 36.6 381.6 35.5 205.9 35.5 118.1 Z"/>
  <path style="paint-order: fill markers; fill: rgb(208, 208, 208);" d="M 35 139.4 C 35 56.9 121.1 56.9 121.1 56.9 L 379.8 56.9 C 379.8 56.9 466 56.9 466 139.4 C 466 221.9 466 387.1 466 387.1 C 466 387.1 466 469.6 380.2 469 C 293.7 468.7 121.1 469.6 120.8 469.6 C 35 469.6 36.1 387.4 36.1 387.4 C 36.1 387.4 35 222 35 139.4 Z"/>
</svg>